<svg width="303" height="87" viewBox="0 0 303 87" fill="none" xmlns="http://www.w3.org/2000/svg">
<path opacity="0.35" d="M69.1039 24.8361L10.415 37.3108C6.36337 38.172 3.77703 42.1546 4.63823 46.2062L11.2654 77.3847C12.1266 81.4363 16.1092 84.0226 20.1609 83.1614L78.8497 70.6867C82.9013 69.8256 85.4877 65.8429 84.6265 61.7913L77.9993 30.6128C77.1381 26.5612 73.1555 23.9749 69.1039 24.8361Z" fill="#D9FF3C"/>
<path opacity="0.35" d="M43.372 63.8511L18.6126 69.1139C17.8529 69.2753 17.368 70.0221 17.5295 70.7818C17.6909 71.5414 18.4377 72.0264 19.1974 71.8649L43.9567 66.6021C44.7164 66.4407 45.2013 65.6939 45.0399 64.9343C44.8784 64.1746 44.1317 63.6896 43.372 63.8511Z" fill="#0E1116"/>
<path d="M80.3874 35.3563L15.401 26.2231C10.7865 25.5746 6.51991 28.7897 5.87138 33.4042L1.17429 66.8258C0.525756 71.4403 3.74085 75.7069 8.3554 76.3554L73.3417 85.4887C77.9563 86.1372 82.2229 82.9221 82.8714 78.3075L87.5685 44.886C88.217 40.2714 85.0019 36.0049 80.3874 35.3563Z" fill="#D9FF3C"/>
<path d="M19.5649 35.3287L16.3156 34.8721C15.6747 34.782 15.0821 35.2285 14.992 35.8695L14.5354 39.1188C14.4453 39.7597 14.8918 40.3523 15.5327 40.4423L18.7821 40.899C19.423 40.9891 20.0155 40.5425 20.1056 39.9016L20.5623 36.6523C20.6524 36.0114 20.2058 35.4188 19.5649 35.3287Z" fill="#0E1116"/>
<path d="M26.5278 36.3073L23.2785 35.8506C22.6375 35.7605 22.045 36.2071 21.9549 36.848L21.4982 40.0973C21.4082 40.7382 21.8547 41.3308 22.4956 41.4209L25.7449 41.8775C26.3858 41.9676 26.9784 41.521 27.0685 40.8801L27.5251 37.6308C27.6152 36.9899 27.1687 36.3973 26.5278 36.3073Z" fill="#0E1116"/>
<path d="M33.4906 37.2858L30.2413 36.8291C29.6004 36.739 29.0078 37.1856 28.9177 37.8265L28.4611 41.0758C28.371 41.7167 28.8175 42.3093 29.4584 42.3994L32.7077 42.856C33.3487 42.9461 33.9412 42.4996 34.0313 41.8587L34.488 38.6093C34.578 37.9684 34.1315 37.3758 33.4906 37.2858Z" fill="#0E1116"/>
<path d="M40.4534 38.2643L37.2041 37.8076C36.5632 37.7176 35.9706 38.1641 35.8805 38.805L35.4239 42.0543C35.3338 42.6952 35.7803 43.2878 36.4212 43.3779L39.6705 43.8345C40.3115 43.9246 40.904 43.4781 40.9941 42.8372L41.4508 39.5879C41.5408 38.9469 41.0943 38.3544 40.4534 38.2643Z" fill="#0E1116"/>
<path d="M18.5864 42.2916L15.3371 41.835C14.6962 41.7449 14.1036 42.1914 14.0135 42.8323L13.5568 46.0817C13.4668 46.7226 13.9133 47.3152 14.5542 47.4052L17.8035 47.8619C18.4445 47.952 19.037 47.5054 19.1271 46.8645L19.5838 43.6152C19.6738 42.9743 19.2273 42.3817 18.5864 42.2916Z" fill="#0E1116"/>
<path d="M17.6078 49.2545L14.3585 48.7979C13.7176 48.7078 13.125 49.1543 13.0349 49.7952L12.5783 53.0446C12.4882 53.6855 12.9347 54.278 13.5757 54.3681L16.825 54.8248C17.4659 54.9149 18.0585 54.4683 18.1485 53.8274L18.6052 50.5781C18.6953 49.9372 18.2487 49.3446 17.6078 49.2545Z" fill="#0E1116"/>
<path d="M24.5706 50.233L21.3213 49.7764C20.6804 49.6863 20.0878 50.1328 19.9978 50.7738L19.5411 54.0231C19.451 54.664 19.8976 55.2566 20.5385 55.3466L23.7878 55.8033C24.4287 55.8934 25.0213 55.4468 25.1114 54.8059L25.568 51.5566C25.6581 50.9157 25.2116 50.3231 24.5706 50.233Z" fill="#0E1116"/>
<path d="M31.5335 51.2116L28.2842 50.7549C27.6432 50.6648 27.0507 51.1114 26.9606 51.7523L26.5039 55.0016C26.4139 55.6425 26.8604 56.2351 27.5013 56.3251L30.7506 56.7818C31.3915 56.8719 31.9841 56.4253 32.0742 55.7844L32.5309 52.5351C32.6209 51.8942 32.1744 51.3016 31.5335 51.2116Z" fill="#0E1116"/>
<path d="M16.6293 56.2174L13.38 55.7607C12.739 55.6707 12.1465 56.1172 12.0564 56.7581L11.5997 60.0074C11.5097 60.6484 11.9562 61.2409 12.5971 61.331L15.8464 61.7877C16.4873 61.8777 17.0799 61.4312 17.17 60.7903L17.6266 57.541C17.7167 56.9001 17.2702 56.3075 16.6293 56.2174Z" fill="#0E1116"/>
<path opacity="0.92" d="M76.6312 45.2425L60.8488 43.0244C59.567 42.8443 58.3819 43.7374 58.2017 45.0192L56.636 56.1597C56.4559 57.4415 57.3489 58.6267 58.6308 58.8068L74.4132 61.0249C75.695 61.205 76.8801 60.312 77.0603 59.0301L78.626 47.8896C78.8061 46.6078 77.9131 45.4226 76.6312 45.2425Z" fill="#0E1116"/>
<path d="M57.8103 47.8047L78.2346 50.6751" stroke="#D9FF3C" stroke-width="1.5"/>
<path d="M57.0927 52.9102L77.5169 55.7806" stroke="#D9FF3C" stroke-width="1.5"/>
<path d="M65.0265 43.6113L62.8084 59.3937" stroke="#D9FF3C" stroke-width="1.5"/>
<path d="M72.4535 44.6553L70.2355 60.4377" stroke="#D9FF3C" stroke-width="1.5"/>
<path opacity="0.5" d="M45.7941 69.3098L12.3725 64.6127C11.6034 64.5046 10.8923 65.0405 10.7842 65.8096C10.6761 66.5786 11.212 67.2897 11.9811 67.3978L45.4026 72.0949C46.1717 72.203 46.8828 71.6672 46.9909 70.8981C47.099 70.129 46.5632 69.4179 45.7941 69.3098Z" fill="#0E1116"/>
<path opacity="0.5" d="M70.8602 72.8326L52.2927 70.2231C51.5236 70.115 50.8125 70.6508 50.7044 71.4199C50.5963 72.189 51.1322 72.9001 51.9013 73.0082L70.4688 75.6177C71.2379 75.7258 71.949 75.1899 72.0571 74.4208C72.1652 73.6517 71.6293 72.9406 70.8602 72.8326Z" fill="#0E1116"/>
<path d="M96.6323 72V35.5H119.332V41.3H102.782V51.05H118.032V56.85H102.882V72H96.6323ZM127.113 72V66.5H134.463V41H127.113V35.5H148.113V41H140.763V66.5H148.113V72H127.113ZM156.343 72V35.5H167.193C169.66 35.5 171.793 35.9667 173.593 36.9C175.427 37.8333 176.843 39.15 177.843 40.85C178.843 42.55 179.343 44.5667 179.343 46.9V60.55C179.343 62.85 178.843 64.8667 177.843 66.6C176.843 68.3 175.427 69.6333 173.593 70.6C171.793 71.5333 169.66 72 167.193 72H156.343ZM162.593 66.25H167.193C168.993 66.25 170.427 65.75 171.493 64.75C172.56 63.7167 173.093 62.3167 173.093 60.55V46.9C173.093 45.1667 172.56 43.8 171.493 42.8C170.427 41.7667 168.993 41.25 167.193 41.25H162.593V66.25ZM187.724 72V35.5H193.974V66.2H209.474V72H187.724ZM217.054 72V66.5H224.404V41H217.054V35.5H238.054V41H230.704V66.5H238.054V72H217.054ZM246.535 72V35.5H269.235V41.3H252.685V51.05H267.935V56.85H252.785V72H246.535ZM284.365 72V58.75L273.665 35.5H280.215L285.915 48.15C286.348 49.15 286.715 50.1333 287.015 51.1C287.315 52.0667 287.515 52.8167 287.615 53.35C287.748 52.8167 287.948 52.0667 288.215 51.1C288.515 50.1333 288.882 49.15 289.315 48.15L294.865 35.5H301.365L290.665 58.75V72H284.365Z" fill="black"/>
<path d="M43.3784 22V4.82031H48.9448C51.0542 4.82031 52.4292 4.90625 53.0698 5.07812C54.0542 5.33594 54.8784 5.89844 55.5425 6.76562C56.2065 7.625 56.5386 8.73828 56.5386 10.1055C56.5386 11.1602 56.3472 12.0469 55.9644 12.7656C55.5815 13.4844 55.0933 14.0508 54.4995 14.4648C53.9136 14.8711 53.3159 15.1406 52.7065 15.2734C51.8784 15.4375 50.6792 15.5195 49.1089 15.5195H46.8472V22H43.3784ZM46.8472 7.72656V12.6016H48.7456C50.1128 12.6016 51.0269 12.5117 51.4878 12.332C51.9487 12.1523 52.3081 11.8711 52.5659 11.4883C52.8315 11.1055 52.9644 10.6602 52.9644 10.1523C52.9644 9.52734 52.7808 9.01172 52.4136 8.60547C52.0464 8.19922 51.5815 7.94531 51.019 7.84375C50.605 7.76562 49.7729 7.72656 48.5229 7.72656H46.8472ZM59.3979 22V4.82031H66.6987C68.5347 4.82031 69.8667 4.97656 70.6948 5.28906C71.5308 5.59375 72.1987 6.14063 72.6987 6.92969C73.1987 7.71875 73.4487 8.62109 73.4487 9.63672C73.4487 10.9258 73.0698 11.9922 72.312 12.8359C71.5542 13.6719 70.4214 14.1992 68.9136 14.418C69.6636 14.8555 70.2808 15.3359 70.7651 15.8594C71.2573 16.3828 71.9175 17.3125 72.7456 18.6484L74.8433 22H70.6948L68.187 18.2617C67.2964 16.9258 66.687 16.0859 66.3589 15.7422C66.0308 15.3906 65.6831 15.1523 65.3159 15.0273C64.9487 14.8945 64.3667 14.8281 63.5698 14.8281H62.8667V22H59.3979ZM62.8667 12.0859H65.4331C67.0972 12.0859 68.1362 12.0156 68.5503 11.875C68.9644 11.7344 69.2886 11.4922 69.5229 11.1484C69.7573 10.8047 69.8745 10.375 69.8745 9.85938C69.8745 9.28125 69.7183 8.81641 69.4058 8.46484C69.1011 8.10547 68.6675 7.87891 68.105 7.78516C67.8237 7.74609 66.98 7.72656 65.5737 7.72656H62.8667V12.0859ZM76.0269 13.5156C76.0269 11.7656 76.2886 10.2969 76.812 9.10938C77.2026 8.23438 77.7339 7.44922 78.4058 6.75391C79.0854 6.05859 79.8276 5.54297 80.6323 5.20703C81.7026 4.75391 82.937 4.52734 84.3354 4.52734C86.8667 4.52734 88.8901 5.3125 90.4058 6.88281C91.9292 8.45312 92.6909 10.6367 92.6909 13.4336C92.6909 16.207 91.937 18.3789 90.4292 19.9492C88.9214 21.5117 86.9058 22.293 84.3823 22.293C81.8276 22.293 79.7964 21.5156 78.2886 19.9609C76.7808 18.3984 76.0269 16.25 76.0269 13.5156ZM79.6011 13.3984C79.6011 15.3438 80.0503 16.8203 80.9487 17.8281C81.8472 18.8281 82.9878 19.3281 84.3706 19.3281C85.7534 19.3281 86.8862 18.832 87.769 17.8398C88.6597 16.8398 89.105 15.3438 89.105 13.3516C89.105 11.3828 88.6714 9.91406 87.8042 8.94531C86.9448 7.97656 85.8003 7.49219 84.3706 7.49219C82.9409 7.49219 81.7886 7.98438 80.9136 8.96875C80.0386 9.94531 79.6011 11.4219 79.6011 13.3984ZM95.4097 22V4.82031H100.976C103.085 4.82031 104.46 4.90625 105.101 5.07812C106.085 5.33594 106.91 5.89844 107.574 6.76562C108.238 7.625 108.57 8.73828 108.57 10.1055C108.57 11.1602 108.378 12.0469 107.996 12.7656C107.613 13.4844 107.125 14.0508 106.531 14.4648C105.945 14.8711 105.347 15.1406 104.738 15.2734C103.91 15.4375 102.71 15.5195 101.14 15.5195H98.8784V22H95.4097ZM98.8784 7.72656V12.6016H100.777C102.144 12.6016 103.058 12.5117 103.519 12.332C103.98 12.1523 104.339 11.8711 104.597 11.4883C104.863 11.1055 104.996 10.6602 104.996 10.1523C104.996 9.52734 104.812 9.01172 104.445 8.60547C104.078 8.19922 103.613 7.94531 103.05 7.84375C102.636 7.76562 101.804 7.72656 100.554 7.72656H98.8784ZM111.394 4.82031H114.863V14.125C114.863 15.6016 114.906 16.5586 114.992 16.9961C115.14 17.6992 115.492 18.2656 116.046 18.6953C116.609 19.1172 117.375 19.3281 118.343 19.3281C119.328 19.3281 120.07 19.1289 120.57 18.7305C121.07 18.3242 121.371 17.8281 121.472 17.2422C121.574 16.6562 121.625 15.6836 121.625 14.3242V4.82031H125.093V13.8438C125.093 15.9062 125 17.3633 124.812 18.2148C124.625 19.0664 124.277 19.7852 123.769 20.3711C123.269 20.957 122.597 21.4258 121.753 21.7773C120.91 22.1211 119.808 22.293 118.449 22.293C116.808 22.293 115.562 22.1055 114.71 21.7305C113.867 21.3477 113.199 20.8555 112.707 20.2539C112.214 19.6445 111.89 19.0078 111.734 18.3438C111.507 17.3594 111.394 15.9062 111.394 13.9844V4.82031ZM128.855 22V4.96094H132.324V19.1055H140.949V22H128.855ZM142.554 16.4102L145.929 16.082C146.132 17.2148 146.542 18.0469 147.16 18.5781C147.785 19.1094 148.625 19.375 149.679 19.375C150.796 19.375 151.636 19.1406 152.199 18.6719C152.769 18.1953 153.054 17.6406 153.054 17.0078C153.054 16.6016 152.933 16.2578 152.691 15.9766C152.457 15.6875 152.042 15.4375 151.449 15.2266C151.042 15.0859 150.117 14.8359 148.671 14.4766C146.812 14.0156 145.507 13.4492 144.757 12.7773C143.703 11.832 143.175 10.6797 143.175 9.32031C143.175 8.44531 143.421 7.62891 143.914 6.87109C144.414 6.10547 145.128 5.52344 146.058 5.125C146.996 4.72656 148.125 4.52734 149.445 4.52734C151.601 4.52734 153.222 5 154.308 5.94531C155.402 6.89063 155.976 8.15234 156.031 9.73047L152.562 9.88281C152.414 9 152.093 8.36719 151.601 7.98438C151.117 7.59375 150.386 7.39844 149.41 7.39844C148.402 7.39844 147.613 7.60547 147.042 8.01953C146.675 8.28516 146.492 8.64062 146.492 9.08594C146.492 9.49219 146.664 9.83984 147.007 10.1289C147.445 10.4961 148.507 10.8789 150.195 11.2773C151.882 11.6758 153.128 12.0898 153.933 12.5195C154.746 12.9414 155.378 13.5234 155.832 14.2656C156.292 15 156.523 15.9102 156.523 16.9961C156.523 17.9805 156.25 18.9023 155.703 19.7617C155.156 20.6211 154.382 21.2617 153.382 21.6836C152.382 22.0977 151.136 22.3047 149.644 22.3047C147.472 22.3047 145.804 21.8047 144.64 20.8047C143.476 19.7969 142.781 18.332 142.554 16.4102ZM159.441 22V4.82031H172.179V7.72656H162.91V11.5352H171.535V14.4297H162.91V19.1055H172.507V22H159.441ZM163.847 3.83594L165.464 0.332031H169.156L165.933 3.83594H163.847ZM175.449 22V4.82031H188.187V7.72656H178.917V11.5352H187.542V14.4297H178.917V19.1055H188.515V22H175.449ZM179.855 3.83594L181.472 0.332031H185.164L181.941 3.83594H179.855ZM198.136 22V4.82031H203.703C205.812 4.82031 207.187 4.90625 207.828 5.07812C208.812 5.33594 209.636 5.89844 210.3 6.76562C210.964 7.625 211.296 8.73828 211.296 10.1055C211.296 11.1602 211.105 12.0469 210.722 12.7656C210.339 13.4844 209.851 14.0508 209.257 14.4648C208.671 14.8711 208.074 15.1406 207.464 15.2734C206.636 15.4375 205.437 15.5195 203.867 15.5195H201.605V22H198.136ZM201.605 7.72656V12.6016H203.503C204.871 12.6016 205.785 12.5117 206.246 12.332C206.707 12.1523 207.066 11.8711 207.324 11.4883C207.589 11.1055 207.722 10.6602 207.722 10.1523C207.722 9.52734 207.539 9.01172 207.171 8.60547C206.804 8.19922 206.339 7.94531 205.777 7.84375C205.363 7.76562 204.531 7.72656 203.281 7.72656H201.605ZM227.855 22H224.082L222.582 18.0977H215.714L214.296 22H210.617L217.308 4.82031H220.976L227.855 22ZM221.468 15.2031L219.101 8.82812L216.781 15.2031H221.468ZM229.718 22V4.82031H237.019C238.855 4.82031 240.187 4.97656 241.015 5.28906C241.851 5.59375 242.519 6.14063 243.019 6.92969C243.519 7.71875 243.769 8.62109 243.769 9.63672C243.769 10.9258 243.39 11.9922 242.632 12.8359C241.875 13.6719 240.742 14.1992 239.234 14.418C239.984 14.8555 240.601 15.3359 241.085 15.8594C241.578 16.3828 242.238 17.3125 243.066 18.6484L245.164 22H241.015L238.507 18.2617C237.617 16.9258 237.007 16.0859 236.679 15.7422C236.351 15.3906 236.003 15.1523 235.636 15.0273C235.269 14.8945 234.687 14.8281 233.89 14.8281H233.187V22H229.718ZM233.187 12.0859H235.753C237.417 12.0859 238.457 12.0156 238.871 11.875C239.285 11.7344 239.609 11.4922 239.843 11.1484C240.078 10.8047 240.195 10.375 240.195 9.85938C240.195 9.28125 240.039 8.81641 239.726 8.46484C239.421 8.10547 238.988 7.87891 238.425 7.78516C238.144 7.74609 237.3 7.72656 235.894 7.72656H233.187V12.0859Z" fill="black"/>
</svg>
