<svg width="341" height="98" viewBox="0 0 341 98" fill="none" xmlns="http://www.w3.org/2000/svg">
<rect width="341" height="98" rx="49" fill="black"/>
<path opacity="0.35" d="M95.4715 29.8371L36.7826 42.3118C32.731 43.173 30.1447 47.1556 31.0059 51.2072L37.6331 82.3857C38.4943 86.4373 42.4769 89.0236 46.5285 88.1624L105.217 75.6877C109.269 74.8265 111.855 70.8439 110.994 66.7923L104.367 35.6138C103.506 31.5622 99.5231 28.9759 95.4715 29.8371Z" fill="#D9FF3C"/>
<path opacity="0.35" d="M69.7396 68.8521L44.9803 74.1149C44.2206 74.2763 43.7356 75.0231 43.8971 75.7827C44.0586 76.5424 44.8053 77.0274 45.565 76.8659L70.3244 71.6031C71.084 71.4417 71.569 70.6949 71.4075 69.9352C71.246 69.1756 70.4993 68.6906 69.7396 68.8521Z" fill="#0E1116"/>
<path d="M106.755 40.3573L41.7687 31.2241C37.1541 30.5755 32.8876 33.7906 32.239 38.4052L27.5419 71.8267C26.8934 76.4413 30.1085 80.7079 34.723 81.3564L99.7094 90.4896C104.324 91.1382 108.591 87.9231 109.239 83.3085L113.936 49.887C114.585 45.2724 111.37 41.0058 106.755 40.3573Z" fill="#D9FF3C"/>
<path d="M45.9326 40.3297L42.6832 39.8731C42.0423 39.783 41.4497 40.2295 41.3597 40.8704L40.903 44.1197C40.8129 44.7607 41.2595 45.3532 41.9004 45.4433L45.1497 45.9C45.7906 45.99 46.3832 45.5435 46.4733 44.9026L46.9299 41.6533C47.02 41.0124 46.5735 40.4198 45.9326 40.3297Z" fill="#0E1116"/>
<path d="M52.8954 41.3082L49.6461 40.8516C49.0052 40.7615 48.4126 41.208 48.3225 41.8489L47.8659 45.0983C47.7758 45.7392 48.2223 46.3318 48.8632 46.4218L52.1126 46.8785C52.7535 46.9686 53.3461 46.522 53.4361 45.8811L53.8928 42.6318C53.9829 41.9909 53.5363 41.3983 52.8954 41.3082Z" fill="#0E1116"/>
<path d="M59.8582 42.2867L56.6089 41.8301C55.968 41.74 55.3754 42.1866 55.2854 42.8275L54.8287 46.0768C54.7386 46.7177 55.1852 47.3103 55.8261 47.4003L59.0754 47.857C59.7163 47.9471 60.3089 47.5005 60.399 46.8596L60.8556 43.6103C60.9457 42.9694 60.4992 42.3768 59.8582 42.2867Z" fill="#0E1116"/>
<path d="M66.821 43.2653L63.5717 42.8086C62.9308 42.7185 62.3382 43.1651 62.2482 43.806L61.7915 47.0553C61.7014 47.6962 62.148 48.2888 62.7889 48.3789L66.0382 48.8355C66.6791 48.9256 67.2717 48.4791 67.3618 47.8381L67.8184 44.5888C67.9085 43.9479 67.462 43.3553 66.821 43.2653Z" fill="#0E1116"/>
<path d="M44.954 47.2926L41.7047 46.8359C41.0638 46.7459 40.4712 47.1924 40.3812 47.8333L39.9245 51.0826C39.8344 51.7235 40.281 52.3161 40.9219 52.4062L44.1712 52.8629C44.8121 52.9529 45.4047 52.5064 45.4948 51.8655L45.9514 48.6162C46.0415 47.9753 45.5949 47.3827 44.954 47.2926Z" fill="#0E1116"/>
<path d="M43.9755 54.2555L40.7261 53.7988C40.0852 53.7088 39.4927 54.1553 39.4026 54.7962L38.9459 58.0455C38.8558 58.6864 39.3024 59.279 39.9433 59.3691L43.1926 59.8258C43.8335 59.9158 44.4261 59.4693 44.5162 58.8284L44.9728 55.5791C45.0629 54.9382 44.6164 54.3456 43.9755 54.2555Z" fill="#0E1116"/>
<path d="M50.9383 55.234L47.689 54.7774C47.0481 54.6873 46.4555 55.1338 46.3654 55.7747L45.9087 59.024C45.8187 59.665 46.2652 60.2575 46.9061 60.3476L50.1554 60.8043C50.7964 60.8943 51.3889 60.4478 51.479 59.8069L51.9357 56.5576C52.0257 55.9167 51.5792 55.3241 50.9383 55.234Z" fill="#0E1116"/>
<path d="M57.9011 56.2125L54.6518 55.7559C54.0109 55.6658 53.4183 56.1123 53.3282 56.7532L52.8716 60.0026C52.7815 60.6435 53.228 61.2361 53.869 61.3261L57.1183 61.7828C57.7592 61.8729 58.3518 61.4263 58.4418 60.7854L58.8985 57.5361C58.9886 56.8952 58.542 56.3026 57.9011 56.2125Z" fill="#0E1116"/>
<path d="M42.9969 61.2184L39.7476 60.7617C39.1067 60.6717 38.5141 61.1182 38.424 61.7591L37.9674 65.0084C37.8773 65.6493 38.3238 66.2419 38.9647 66.332L42.2141 66.7886C42.855 66.8787 43.4476 66.4322 43.5376 65.7913L43.9943 62.542C44.0844 61.901 43.6378 61.3085 42.9969 61.2184Z" fill="#0E1116"/>
<path opacity="0.92" d="M102.999 50.2435L87.2165 48.0254C85.9347 47.8453 84.7495 48.7383 84.5694 50.0202L83.0037 61.1607C82.8235 62.4425 83.7166 63.6277 84.9984 63.8078L100.781 66.0259C102.063 66.206 103.248 65.3129 103.428 64.0311L104.994 52.8906C105.174 51.6088 104.281 50.4236 102.999 50.2435Z" fill="#0E1116"/>
<path d="M84.1779 52.8057L104.602 55.6761" stroke="#D9FF3C" stroke-width="1.5"/>
<path d="M83.4603 57.9111L103.885 60.7816" stroke="#D9FF3C" stroke-width="1.5"/>
<path d="M91.3942 48.6123L89.1761 64.3947" stroke="#D9FF3C" stroke-width="1.5"/>
<path d="M98.8212 49.6562L96.6031 65.4386" stroke="#D9FF3C" stroke-width="1.5"/>
<path opacity="0.5" d="M72.1617 74.3108L38.7402 69.6137C37.9711 69.5056 37.26 70.0414 37.1519 70.8105C37.0438 71.5796 37.5796 72.2907 38.3487 72.3988L71.7703 77.0959C72.5394 77.204 73.2505 76.6681 73.3586 75.899C73.4666 75.13 72.9308 74.4189 72.1617 74.3108Z" fill="#0E1116"/>
<path opacity="0.5" d="M97.2279 77.8335L78.6604 75.224C77.8913 75.1159 77.1802 75.6518 77.0721 76.4209C76.964 77.19 77.4998 77.9011 78.2689 78.0092L96.8365 80.6187C97.6056 80.7267 98.3166 80.1909 98.4247 79.4218C98.5328 78.6527 97.997 77.9416 97.2279 77.8335Z" fill="#0E1116"/>
<path d="M123 77V40.5H145.7V46.3H129.15V56.05H144.4V61.85H129.25V77H123ZM153.48 77V71.5H160.83V46H153.48V40.5H174.48V46H167.13V71.5H174.48V77H153.48ZM182.711 77V40.5H193.561C196.028 40.5 198.161 40.9667 199.961 41.9C201.794 42.8333 203.211 44.15 204.211 45.85C205.211 47.55 205.711 49.5667 205.711 51.9V65.55C205.711 67.85 205.211 69.8667 204.211 71.6C203.211 73.3 201.794 74.6333 199.961 75.6C198.161 76.5333 196.028 77 193.561 77H182.711ZM188.961 71.25H193.561C195.361 71.25 196.794 70.75 197.861 69.75C198.928 68.7167 199.461 67.3167 199.461 65.55V51.9C199.461 50.1667 198.928 48.8 197.861 47.8C196.794 46.7667 195.361 46.25 193.561 46.25H188.961V71.25ZM214.091 77V40.5H220.341V71.2H235.841V77H214.091ZM243.422 77V71.5H250.772V46H243.422V40.5H264.422V46H257.072V71.5H264.422V77H243.422ZM272.902 77V40.5H295.602V46.3H279.052V56.05H294.302V61.85H279.152V77H272.902ZM310.733 77V63.75L300.033 40.5H306.583L312.283 53.15C312.716 54.15 313.083 55.1333 313.383 56.1C313.683 57.0667 313.883 57.8167 313.983 58.35C314.116 57.8167 314.316 57.0667 314.583 56.1C314.883 55.1333 315.249 54.15 315.683 53.15L321.233 40.5H327.733L317.033 63.75V77H310.733Z" fill="#D9FF3C"/>
<path d="M69.7461 27V9.82031H75.3125C77.4219 9.82031 78.7969 9.90625 79.4375 10.0781C80.4219 10.3359 81.2461 10.8984 81.9102 11.7656C82.5742 12.625 82.9062 13.7383 82.9062 15.1055C82.9062 16.1602 82.7148 17.0469 82.332 17.7656C81.9492 18.4844 81.4609 19.0508 80.8672 19.4648C80.2812 19.8711 79.6836 20.1406 79.0742 20.2734C78.2461 20.4375 77.0469 20.5195 75.4766 20.5195H73.2148V27H69.7461ZM73.2148 12.7266V17.6016H75.1133C76.4805 17.6016 77.3945 17.5117 77.8555 17.332C78.3164 17.1523 78.6758 16.8711 78.9336 16.4883C79.1992 16.1055 79.332 15.6602 79.332 15.1523C79.332 14.5273 79.1484 14.0117 78.7812 13.6055C78.4141 13.1992 77.9492 12.9453 77.3867 12.8438C76.9727 12.7656 76.1406 12.7266 74.8906 12.7266H73.2148ZM85.7656 27V9.82031H93.0664C94.9023 9.82031 96.2344 9.97656 97.0625 10.2891C97.8984 10.5938 98.5664 11.1406 99.0664 11.9297C99.5664 12.7188 99.8164 13.6211 99.8164 14.6367C99.8164 15.9258 99.4375 16.9922 98.6797 17.8359C97.9219 18.6719 96.7891 19.1992 95.2812 19.418C96.0312 19.8555 96.6484 20.3359 97.1328 20.8594C97.625 21.3828 98.2852 22.3125 99.1133 23.6484L101.211 27H97.0625L94.5547 23.2617C93.6641 21.9258 93.0547 21.0859 92.7266 20.7422C92.3984 20.3906 92.0508 20.1523 91.6836 20.0273C91.3164 19.8945 90.7344 19.8281 89.9375 19.8281H89.2344V27H85.7656ZM89.2344 17.0859H91.8008C93.4648 17.0859 94.5039 17.0156 94.918 16.875C95.332 16.7344 95.6562 16.4922 95.8906 16.1484C96.125 15.8047 96.2422 15.375 96.2422 14.8594C96.2422 14.2812 96.0859 13.8164 95.7734 13.4648C95.4688 13.1055 95.0352 12.8789 94.4727 12.7852C94.1914 12.7461 93.3477 12.7266 91.9414 12.7266H89.2344V17.0859ZM102.395 18.5156C102.395 16.7656 102.656 15.2969 103.18 14.1094C103.57 13.2344 104.102 12.4492 104.773 11.7539C105.453 11.0586 106.195 10.543 107 10.207C108.07 9.75391 109.305 9.52734 110.703 9.52734C113.234 9.52734 115.258 10.3125 116.773 11.8828C118.297 13.4531 119.059 15.6367 119.059 18.4336C119.059 21.207 118.305 23.3789 116.797 24.9492C115.289 26.5117 113.273 27.293 110.75 27.293C108.195 27.293 106.164 26.5156 104.656 24.9609C103.148 23.3984 102.395 21.25 102.395 18.5156ZM105.969 18.3984C105.969 20.3438 106.418 21.8203 107.316 22.8281C108.215 23.8281 109.355 24.3281 110.738 24.3281C112.121 24.3281 113.254 23.832 114.137 22.8398C115.027 21.8398 115.473 20.3438 115.473 18.3516C115.473 16.3828 115.039 14.9141 114.172 13.9453C113.312 12.9766 112.168 12.4922 110.738 12.4922C109.309 12.4922 108.156 12.9844 107.281 13.9688C106.406 14.9453 105.969 16.4219 105.969 18.3984ZM121.777 27V9.82031H127.344C129.453 9.82031 130.828 9.90625 131.469 10.0781C132.453 10.3359 133.277 10.8984 133.941 11.7656C134.605 12.625 134.938 13.7383 134.938 15.1055C134.938 16.1602 134.746 17.0469 134.363 17.7656C133.98 18.4844 133.492 19.0508 132.898 19.4648C132.312 19.8711 131.715 20.1406 131.105 20.2734C130.277 20.4375 129.078 20.5195 127.508 20.5195H125.246V27H121.777ZM125.246 12.7266V17.6016H127.145C128.512 17.6016 129.426 17.5117 129.887 17.332C130.348 17.1523 130.707 16.8711 130.965 16.4883C131.23 16.1055 131.363 15.6602 131.363 15.1523C131.363 14.5273 131.18 14.0117 130.812 13.6055C130.445 13.1992 129.98 12.9453 129.418 12.8438C129.004 12.7656 128.172 12.7266 126.922 12.7266H125.246ZM137.762 9.82031H141.23V19.125C141.23 20.6016 141.273 21.5586 141.359 21.9961C141.508 22.6992 141.859 23.2656 142.414 23.6953C142.977 24.1172 143.742 24.3281 144.711 24.3281C145.695 24.3281 146.438 24.1289 146.938 23.7305C147.438 23.3242 147.738 22.8281 147.84 22.2422C147.941 21.6562 147.992 20.6836 147.992 19.3242V9.82031H151.461V18.8438C151.461 20.9062 151.367 22.3633 151.18 23.2148C150.992 24.0664 150.645 24.7852 150.137 25.3711C149.637 25.957 148.965 26.4258 148.121 26.7773C147.277 27.1211 146.176 27.293 144.816 27.293C143.176 27.293 141.93 27.1055 141.078 26.7305C140.234 26.3477 139.566 25.8555 139.074 25.2539C138.582 24.6445 138.258 24.0078 138.102 23.3438C137.875 22.3594 137.762 20.9062 137.762 18.9844V9.82031ZM155.223 27V9.96094H158.691V24.1055H167.316V27H155.223ZM168.922 21.4102L172.297 21.082C172.5 22.2148 172.91 23.0469 173.527 23.5781C174.152 24.1094 174.992 24.375 176.047 24.375C177.164 24.375 178.004 24.1406 178.566 23.6719C179.137 23.1953 179.422 22.6406 179.422 22.0078C179.422 21.6016 179.301 21.2578 179.059 20.9766C178.824 20.6875 178.41 20.4375 177.816 20.2266C177.41 20.0859 176.484 19.8359 175.039 19.4766C173.18 19.0156 171.875 18.4492 171.125 17.7773C170.07 16.832 169.543 15.6797 169.543 14.3203C169.543 13.4453 169.789 12.6289 170.281 11.8711C170.781 11.1055 171.496 10.5234 172.426 10.125C173.363 9.72656 174.492 9.52734 175.812 9.52734C177.969 9.52734 179.59 10 180.676 10.9453C181.77 11.8906 182.344 13.1523 182.398 14.7305L178.93 14.8828C178.781 14 178.461 13.3672 177.969 12.9844C177.484 12.5938 176.754 12.3984 175.777 12.3984C174.77 12.3984 173.98 12.6055 173.41 13.0195C173.043 13.2852 172.859 13.6406 172.859 14.0859C172.859 14.4922 173.031 14.8398 173.375 15.1289C173.812 15.4961 174.875 15.8789 176.562 16.2773C178.25 16.6758 179.496 17.0898 180.301 17.5195C181.113 17.9414 181.746 18.5234 182.199 19.2656C182.66 20 182.891 20.9102 182.891 21.9961C182.891 22.9805 182.617 23.9023 182.07 24.7617C181.523 25.6211 180.75 26.2617 179.75 26.6836C178.75 27.0977 177.504 27.3047 176.012 27.3047C173.84 27.3047 172.172 26.8047 171.008 25.8047C169.844 24.7969 169.148 23.332 168.922 21.4102ZM185.809 27V9.82031H198.547V12.7266H189.277V16.5352H197.902V19.4297H189.277V24.1055H198.875V27H185.809ZM190.215 8.83594L191.832 5.33203H195.523L192.301 8.83594H190.215ZM201.816 27V9.82031H214.555V12.7266H205.285V16.5352H213.91V19.4297H205.285V24.1055H214.883V27H201.816ZM206.223 8.83594L207.84 5.33203H211.531L208.309 8.83594H206.223ZM224.504 27V9.82031H230.07C232.18 9.82031 233.555 9.90625 234.195 10.0781C235.18 10.3359 236.004 10.8984 236.668 11.7656C237.332 12.625 237.664 13.7383 237.664 15.1055C237.664 16.1602 237.473 17.0469 237.09 17.7656C236.707 18.4844 236.219 19.0508 235.625 19.4648C235.039 19.8711 234.441 20.1406 233.832 20.2734C233.004 20.4375 231.805 20.5195 230.234 20.5195H227.973V27H224.504ZM227.973 12.7266V17.6016H229.871C231.238 17.6016 232.152 17.5117 232.613 17.332C233.074 17.1523 233.434 16.8711 233.691 16.4883C233.957 16.1055 234.09 15.6602 234.09 15.1523C234.09 14.5273 233.906 14.0117 233.539 13.6055C233.172 13.1992 232.707 12.9453 232.145 12.8438C231.73 12.7656 230.898 12.7266 229.648 12.7266H227.973ZM254.223 27H250.449L248.949 23.0977H242.082L240.664 27H236.984L243.676 9.82031H247.344L254.223 27ZM247.836 20.2031L245.469 13.8281L243.148 20.2031H247.836ZM256.086 27V9.82031H263.387C265.223 9.82031 266.555 9.97656 267.383 10.2891C268.219 10.5938 268.887 11.1406 269.387 11.9297C269.887 12.7188 270.137 13.6211 270.137 14.6367C270.137 15.9258 269.758 16.9922 269 17.8359C268.242 18.6719 267.109 19.1992 265.602 19.418C266.352 19.8555 266.969 20.3359 267.453 20.8594C267.945 21.3828 268.605 22.3125 269.434 23.6484L271.531 27H267.383L264.875 23.2617C263.984 21.9258 263.375 21.0859 263.047 20.7422C262.719 20.3906 262.371 20.1523 262.004 20.0273C261.637 19.8945 261.055 19.8281 260.258 19.8281H259.555V27H256.086ZM259.555 17.0859H262.121C263.785 17.0859 264.824 17.0156 265.238 16.875C265.652 16.7344 265.977 16.4922 266.211 16.1484C266.445 15.8047 266.562 15.375 266.562 14.8594C266.562 14.2812 266.406 13.8164 266.094 13.4648C265.789 13.1055 265.355 12.8789 264.793 12.7852C264.512 12.7461 263.668 12.7266 262.262 12.7266H259.555V17.0859Z" fill="white"/>
</svg>
